<?xml version="1.0" encoding="UTF-8" standalone="no"?>
<!-- Created with Inkscape (http://www.inkscape.org/) -->

<svg
   xmlns:dc="http://purl.org/dc/elements/1.1/"
   xmlns:cc="http://creativecommons.org/ns#"
   xmlns:rdf="http://www.w3.org/1999/02/22-rdf-syntax-ns#"
   xmlns:svg="http://www.w3.org/2000/svg"
   xmlns="http://www.w3.org/2000/svg"
   xmlns:sodipodi="http://sodipodi.sourceforge.net/DTD/sodipodi-0.dtd"
   xmlns:inkscape="http://www.inkscape.org/namespaces/inkscape"
   width="128px"
   height="128px"
   viewBox="0 0 128 128"
   version="1.1"
   id="SVGRoot"
   inkscape:version="0.92.4 (5da689c313, 2019-01-14)"
   sodipodi:docname="pangbox.svg"
   inkscape:export-filename="/home/john/Documents/pangbox-200.png"
   inkscape:export-xdpi="150"
   inkscape:export-ydpi="150">
  <defs
     id="defs815" />
  <sodipodi:namedview
     id="base"
     pagecolor="#ffffff"
     bordercolor="#666666"
     borderopacity="1.0"
     inkscape:pageopacity="0.0"
     inkscape:pageshadow="2"
     inkscape:zoom="2"
     inkscape:cx="4.4782182"
     inkscape:cy="59.630918"
     inkscape:document-units="px"
     inkscape:current-layer="layer1"
     showgrid="true"
     inkscape:window-width="1920"
     inkscape:window-height="1016"
     inkscape:window-x="0"
     inkscape:window-y="27"
     inkscape:window-maximized="1"
     inkscape:grid-bbox="true"
     objecttolerance="10000">
    <inkscape:grid
       type="xygrid"
       id="grid1371"
       empspacing="4" />
  </sodipodi:namedview>
  <metadata
     id="metadata818">
    <rdf:RDF>
      <cc:Work
         rdf:about="">
        <dc:format>image/svg+xml</dc:format>
        <dc:type
           rdf:resource="http://purl.org/dc/dcmitype/StillImage" />
        <dc:title></dc:title>
      </cc:Work>
    </rdf:RDF>
  </metadata>
  <g
     inkscape:label="Layer 1"
     inkscape:groupmode="layer"
     id="layer1">
    <path
       style="fill:#4d6082;fill-opacity:1;stroke:none;stroke-width:1.10973275px;stroke-linecap:butt;stroke-linejoin:miter;stroke-opacity:1"
       d="m 120,44 c 0,0 8.29589,-20 -20,-40 0,0 -15.073973,12 -20,28"
       id="path5100-5"
       inkscape:connector-curvature="0"
       sodipodi:nodetypes="ccc" />
    <path
       style="fill:#4d6082;fill-opacity:1;stroke:none;stroke-width:1.10973275px;stroke-linecap:butt;stroke-linejoin:miter;stroke-opacity:1"
       d="M 8,44 C 8,44 -0.29589,24 28,4 28,4 43.073973,16 48,32"
       id="path5100"
       inkscape:connector-curvature="0"
       sodipodi:nodetypes="ccc" />
    <rect
       ry="12"
       y="32"
       x="4"
       height="92"
       width="120"
       id="rect5098"
       style="fill:#4d6082;fill-opacity:1;stroke:none;stroke-width:3.58949256;stroke-linecap:round;stroke-linejoin:round;stroke-miterlimit:4;stroke-dasharray:none;stroke-opacity:1" />
    <rect
       style="fill:#eaedf0;fill-opacity:1;stroke:none;stroke-width:3.35019326;stroke-linecap:round;stroke-linejoin:round;stroke-miterlimit:4;stroke-dasharray:none;stroke-opacity:1"
       id="rect5079"
       width="112"
       height="84.857147"
       x="8"
       y="36"
       ry="8" />
    <rect
       style="fill:#ff9191;fill-opacity:1;stroke:none;stroke-width:5.43239737;stroke-linecap:round;stroke-linejoin:round;stroke-miterlimit:4;stroke-dasharray:none;stroke-opacity:1"
       id="rect5079-3"
       width="104"
       height="16"
       x="12"
       y="40"
       ry="4" />
    <path
       style="fill:#ff9191;fill-opacity:1;stroke:none;stroke-width:0.91287094px;stroke-linecap:butt;stroke-linejoin:miter;stroke-opacity:1"
       d="M 16,32 H 40 C 40,32 40,18.666667 28,12 27.277859,11.791745 13.335765,24.565007 16,32 Z"
       id="path5117"
       inkscape:connector-curvature="0"
       sodipodi:nodetypes="cccc" />
    <path
       style="fill:#ff9191;fill-opacity:1;stroke:none;stroke-width:0.91287094px;stroke-linecap:butt;stroke-linejoin:miter;stroke-opacity:1"
       d="M 112,32 H 88 c 0,0 0,-13.333333 12,-20 0.19922,-0.482309 13.14745,10.555308 12,20 z"
       id="path5117-1"
       inkscape:connector-curvature="0"
       sodipodi:nodetypes="cccc" />
    <circle
       style="fill:none;fill-opacity:1;stroke:#4d6082;stroke-width:5.03929281;stroke-linecap:round;stroke-linejoin:round;stroke-miterlimit:4;stroke-dasharray:none;stroke-opacity:1"
       id="path5136"
       cx="89.333336"
       cy="71.183754"
       r="8.1470213" />
    <path
       style="fill:none;stroke:#4d6082;stroke-width:5.03932905;stroke-linecap:round;stroke-linejoin:round;stroke-miterlimit:4.5999999;stroke-dasharray:none;stroke-opacity:1"
       d="m 30.551788,62.94565 16.262198,8.1308 -16.262198,8.130801"
       id="path5138"
       inkscape:connector-curvature="0" />
    <path
       style="fill:none;stroke:#4d6082;stroke-width:5.03937006;stroke-linecap:round;stroke-linejoin:bevel;stroke-miterlimit:4;stroke-dasharray:none;stroke-opacity:1"
       d="m 51.46499,85.123457 c 0,0 -2.507002,9.947063 5.014004,9.947063 7.521005,0 7.521005,-9.947063 7.521005,-9.947063 0,0 0,9.947063 7.521005,9.947063 7.521005,0 5.014004,-9.947063 5.014004,-9.947063"
       id="path5140"
       inkscape:connector-curvature="0"
       sodipodi:nodetypes="cscsc" />
    <g
       aria-label="pangbox!"
       style="font-style:normal;font-weight:normal;font-size:53.33333206px;line-height:1.25;font-family:sans-serif;letter-spacing:0px;word-spacing:0px;fill:#f6f6f6;fill-opacity:1;stroke:none;stroke-width:1.33333337"
       id="text5144">
      <path
         d="m 20,46 v -2 h 2 v 2 z m 2,0 v -2 h 2 v 2 z m 2,0 v -2 h 2 v 2 z m 2,0 v -2 h 2 v 2 z m -6,2 v -2 h 2 v 2 z m 8,0 v -2 h 2 v 2 z m -8,2 v -2 h 2 v 2 z m 8,0 v -2 h 2 v 2 z m -8,2 v -2 h 2 v 2 z m 8,0 v -2 h 2 v 2 z m -8,2 v -2 h 2 v 2 z m 2,0 v -2 h 2 v 2 z m 2,0 v -2 h 2 v 2 z m 2,0 v -2 h 2 v 2 z m -6,2 v -2 h 2 v 2 z m 0,0 h 2 z"
         style="font-style:normal;font-variant:normal;font-weight:normal;font-stretch:normal;font-size:32px;line-height:1.25;font-family:ProggyTinyTT;-inkscape-font-specification:ProggyTinyTT;text-align:center;text-anchor:middle;fill:#f6f6f6;fill-opacity:1;stroke-width:1.33333337"
         id="path5146"
         inkscape:connector-curvature="0"
         sodipodi:nodetypes="cccccccccccccccccccccccccccccccccccccccccccccccccccccccccccccccccccccccccccccc" />
      <path
         d="m 34,46 v -2 h 2 v 2 z m 2,0 v -2 h 2 v 2 z m 2,0 v -2 h 2 v 2 z m 2,2 v -2 h 2 v 2 z m -6,2 v -2 h 2 v 2 z m 2,0 v -2 h 2 v 2 z m 2,0 v -2 h 2 v 2 z m 2,0 v -2 h 2 v 2 z m -8,2 v -2 h 2 v 2 z m 8,0 v -2 h 2 v 2 z m -6,2 v -2 h 2 v 2 z m 2,0 v -2 h 2 v 2 z m 2,0 v -2 h 2 v 2 z m 2,0 v -2 h 2 v 2 z"
         style="font-style:normal;font-variant:normal;font-weight:normal;font-stretch:normal;font-size:32px;line-height:1.25;font-family:ProggyTinyTT;-inkscape-font-specification:ProggyTinyTT;text-align:center;text-anchor:middle;fill:#f6f6f6;fill-opacity:1;stroke-width:1.33333337"
         id="path5148" />
      <path
         d="m 44,46 v -2 h 2 v 2 z m 2,0 v -2 h 2 v 2 z m 2,0 v -2 h 2 v 2 z m 2,0 v -2 h 2 v 2 z m -6,2 v -2 h 2 v 2 z m 8,0 v -2 h 2 v 2 z m -8,2 v -2 h 2 v 2 z m 8,0 v -2 h 2 v 2 z m -8,2 v -2 h 2 v 2 z m 8,0 v -2 h 2 v 2 z m -8,2 v -2 h 2 v 2 z m 8,0 v -2 h 2 v 2 z"
         style="font-style:normal;font-variant:normal;font-weight:normal;font-stretch:normal;font-size:32px;line-height:1.25;font-family:ProggyTinyTT;-inkscape-font-specification:ProggyTinyTT;text-align:center;text-anchor:middle;fill:#f6f6f6;fill-opacity:1;stroke-width:1.33333337"
         id="path5150" />
      <path
         d="m 58,46 v -2 h 2 v 2 z m 2,0 v -2 h 2 v 2 z m 2,0 v -2 h 2 v 2 z m -6,2 v -2 h 2 v 2 z m 8,0 v -2 h 2 v 2 z m -8,2 v -2 h 2 v 2 z m 8,0 v -2 h 2 v 2 z m -8,2 v -2 h 2 v 2 z m 8,0 v -2 h 2 v 2 z m -6,2 v -2 h 2 v 2 z m 2,0 v -2 h 2 v 2 z m 2,0 v -2 h 2 v 2 z m 2,0 v -2 h 2 v 2 z m 0,2 v -2 h 2 v 2 z"
         style="font-style:normal;font-variant:normal;font-weight:normal;font-stretch:normal;font-size:32px;line-height:1.25;font-family:ProggyTinyTT;-inkscape-font-specification:ProggyTinyTT;text-align:center;text-anchor:middle;fill:#f6f6f6;fill-opacity:1;stroke-width:1.33333337"
         id="path5152"
         inkscape:connector-curvature="0"
         sodipodi:nodetypes="cccccccccccccccccccccccccccccccccccccccccccccccccccccccccccccccccccccc" />
      <path
         d="m 68,40 h 2 z m 0,2 v -2 h 2 v 2 z m 0,2 v -2 h 2 v 2 z m 0,2 v -2 h 2 v 2 z m 2,0 v -2 h 2 v 2 z m 2,0 v -2 h 2 v 2 z m 2,0 v -2 h 2 v 2 z m -6,2 v -2 h 2 v 2 z m 8,0 v -2 h 2 v 2 z m -8,2 v -2 h 2 v 2 z m 8,0 v -2 h 2 v 2 z m -8,2 v -2 h 2 v 2 z m 8,0 v -2 h 2 v 2 z m -8,2 v -2 h 2 v 2 z m 2,0 v -2 h 2 v 2 z m 2,0 v -2 h 2 v 2 z m 2,0 v -2 h 2 v 2 z"
         style="font-style:normal;font-variant:normal;font-weight:normal;font-stretch:normal;font-size:32px;line-height:1.25;font-family:ProggyTinyTT;-inkscape-font-specification:ProggyTinyTT;text-align:center;text-anchor:middle;fill:#f6f6f6;fill-opacity:1;stroke-width:1.33333337"
         id="path5154"
         inkscape:connector-curvature="0"
         sodipodi:nodetypes="ccccccccccccccccccccccccccccccccccccccccccccccccccccccccccccccccccccccccccccccccccc" />
      <path
         d="m 82,46 v -2 h 2 v 2 z m 2,0 v -2 h 2 v 2 z m 2,0 v -2 h 2 v 2 z m -6,2 v -2 h 2 v 2 z m 8,0 v -2 h 2 v 2 z m -8,2 v -2 h 2 v 2 z m 8,0 v -2 h 2 v 2 z m -8,2 v -2 h 2 v 2 z m 8,0 v -2 h 2 v 2 z m -6,2 v -2 h 2 v 2 z m 2,0 v -2 h 2 v 2 z m 2,0 v -2 h 2 v 2 z"
         style="font-style:normal;font-variant:normal;font-weight:normal;font-stretch:normal;font-size:32px;line-height:1.25;font-family:ProggyTinyTT;-inkscape-font-specification:ProggyTinyTT;text-align:center;text-anchor:middle;fill:#f6f6f6;fill-opacity:1;stroke-width:1.33333337"
         id="path5156" />
      <path
         d="m 92,46 v -2 h 2 v 2 z m 8,0 v -2 h 2 v 2 z m -6,2 v -2 h 2 v 2 z m 4,0 v -2 h 2 v 2 z m -2,2 v -2 h 2 v 2 z m -2,2 v -2 h 2 v 2 z m 4,0 v -2 h 2 v 2 z m -6,2 v -2 h 2 v 2 z m 8,0 v -2 h 2 v 2 z"
         style="font-style:normal;font-variant:normal;font-weight:normal;font-stretch:normal;font-size:32px;line-height:1.25;font-family:ProggyTinyTT;-inkscape-font-specification:ProggyTinyTT;text-align:center;text-anchor:middle;fill:#f6f6f6;fill-opacity:1;stroke-width:1.33333337"
         id="path5158" />
      <path
         d="m 108,42 v -2 h 2 v 2 z m 0,2 v -2 h 2 v 2 z m 0,2 v -2 h 2 v 2 z m 0,2 v -2 h 2 v 2 z m 0,2 v -2 h 2 v 2 z m 0,4 v -2 h 2 v 2 z"
         style="font-style:normal;font-variant:normal;font-weight:normal;font-stretch:normal;font-size:32px;line-height:1.25;font-family:ProggyTinyTT;-inkscape-font-specification:ProggyTinyTT;text-align:center;text-anchor:middle;fill:#f6f6f6;fill-opacity:1;stroke-width:1.33333337"
         id="path5160" />
    </g>
  </g>
</svg>
